<mxfile host="app.diagrams.net" agent="Mozilla/5.0 (Macintosh; Intel Mac OS X 10_15_7) AppleWebKit/537.36 (KHTML, like Gecko) Chrome/127.0.0.0 Safari/537.36" version="24.7.7">
  <diagram name="Page-1" id="HRIVJKRXJErPweONjZgH">
    <mxGraphModel dx="1893" dy="1053" grid="1" gridSize="10" guides="1" tooltips="1" connect="1" arrows="1" fold="1" page="1" pageScale="1" pageWidth="850" pageHeight="1100" math="0" shadow="0">
      <root>
        <mxCell id="0" />
        <mxCell id="1" parent="0" />
        <mxCell id="IB7GVzu5P3_bkm7AfhHR-2" value="" style="rounded=0;whiteSpace=wrap;html=1;fillColor=#2e7956;" vertex="1" parent="1">
          <mxGeometry x="60" y="100" width="820" height="140" as="geometry" />
        </mxCell>
        <mxCell id="IB7GVzu5P3_bkm7AfhHR-1" value="" style="rounded=0;whiteSpace=wrap;html=1;strokeColor=#454744;fillColor=#464646;" vertex="1" parent="1">
          <mxGeometry x="80" y="120" width="60" height="80" as="geometry" />
        </mxCell>
        <mxCell id="IB7GVzu5P3_bkm7AfhHR-3" value="" style="rounded=0;whiteSpace=wrap;html=1;strokeColor=#454744;fillColor=#464646;" vertex="1" parent="1">
          <mxGeometry x="160" y="120" width="60" height="80" as="geometry" />
        </mxCell>
        <mxCell id="IB7GVzu5P3_bkm7AfhHR-4" value="" style="rounded=0;whiteSpace=wrap;html=1;strokeColor=#454744;fillColor=#464646;" vertex="1" parent="1">
          <mxGeometry x="240" y="120" width="60" height="80" as="geometry" />
        </mxCell>
        <mxCell id="IB7GVzu5P3_bkm7AfhHR-5" value="" style="rounded=0;whiteSpace=wrap;html=1;strokeColor=#454744;fillColor=#464646;" vertex="1" parent="1">
          <mxGeometry x="320" y="120" width="60" height="80" as="geometry" />
        </mxCell>
        <mxCell id="IB7GVzu5P3_bkm7AfhHR-6" value="" style="rounded=0;whiteSpace=wrap;html=1;strokeColor=#454744;fillColor=#464646;" vertex="1" parent="1">
          <mxGeometry x="400" y="120" width="60" height="80" as="geometry" />
        </mxCell>
        <mxCell id="IB7GVzu5P3_bkm7AfhHR-7" value="" style="rounded=0;whiteSpace=wrap;html=1;strokeColor=#454744;fillColor=#464646;" vertex="1" parent="1">
          <mxGeometry x="480" y="120" width="60" height="80" as="geometry" />
        </mxCell>
        <mxCell id="IB7GVzu5P3_bkm7AfhHR-8" value="" style="rounded=0;whiteSpace=wrap;html=1;strokeColor=#454744;fillColor=#464646;" vertex="1" parent="1">
          <mxGeometry x="560" y="120" width="60" height="80" as="geometry" />
        </mxCell>
        <mxCell id="IB7GVzu5P3_bkm7AfhHR-9" value="" style="rounded=0;whiteSpace=wrap;html=1;strokeColor=#454744;fillColor=#464646;" vertex="1" parent="1">
          <mxGeometry x="640" y="120" width="60" height="80" as="geometry" />
        </mxCell>
        <mxCell id="IB7GVzu5P3_bkm7AfhHR-10" value="" style="rounded=0;whiteSpace=wrap;html=1;strokeColor=#454744;fillColor=#464646;" vertex="1" parent="1">
          <mxGeometry x="720" y="120" width="60" height="80" as="geometry" />
        </mxCell>
        <mxCell id="IB7GVzu5P3_bkm7AfhHR-11" value="" style="rounded=0;whiteSpace=wrap;html=1;strokeColor=#454744;fillColor=#464646;" vertex="1" parent="1">
          <mxGeometry x="800" y="120" width="60" height="80" as="geometry" />
        </mxCell>
        <mxCell id="IB7GVzu5P3_bkm7AfhHR-12" value="" style="rounded=0;whiteSpace=wrap;html=1;fillColor=#e5dc7b;" vertex="1" parent="1">
          <mxGeometry x="70" y="220" width="10" height="20" as="geometry" />
        </mxCell>
        <mxCell id="IB7GVzu5P3_bkm7AfhHR-13" value="" style="rounded=0;whiteSpace=wrap;html=1;fillColor=#e5dc7b;" vertex="1" parent="1">
          <mxGeometry x="80" y="220" width="10" height="20" as="geometry" />
        </mxCell>
        <mxCell id="IB7GVzu5P3_bkm7AfhHR-14" value="" style="rounded=0;whiteSpace=wrap;html=1;fillColor=#e5dc7b;" vertex="1" parent="1">
          <mxGeometry x="90" y="220" width="10" height="20" as="geometry" />
        </mxCell>
        <mxCell id="IB7GVzu5P3_bkm7AfhHR-15" value="" style="rounded=0;whiteSpace=wrap;html=1;fillColor=#e5dc7b;" vertex="1" parent="1">
          <mxGeometry x="100" y="220" width="10" height="20" as="geometry" />
        </mxCell>
        <mxCell id="IB7GVzu5P3_bkm7AfhHR-16" value="" style="rounded=0;whiteSpace=wrap;html=1;fillColor=#e5dc7b;" vertex="1" parent="1">
          <mxGeometry x="110" y="220" width="10" height="20" as="geometry" />
        </mxCell>
        <mxCell id="IB7GVzu5P3_bkm7AfhHR-17" value="" style="rounded=0;whiteSpace=wrap;html=1;fillColor=#e5dc7b;" vertex="1" parent="1">
          <mxGeometry x="120" y="220" width="10" height="20" as="geometry" />
        </mxCell>
        <mxCell id="IB7GVzu5P3_bkm7AfhHR-18" value="" style="rounded=0;whiteSpace=wrap;html=1;fillColor=#e5dc7b;" vertex="1" parent="1">
          <mxGeometry x="130" y="220" width="10" height="20" as="geometry" />
        </mxCell>
        <mxCell id="IB7GVzu5P3_bkm7AfhHR-19" value="" style="rounded=0;whiteSpace=wrap;html=1;fillColor=#e5dc7b;" vertex="1" parent="1">
          <mxGeometry x="140" y="220" width="10" height="20" as="geometry" />
        </mxCell>
        <mxCell id="IB7GVzu5P3_bkm7AfhHR-20" value="" style="rounded=0;whiteSpace=wrap;html=1;fillColor=#e5dc7b;" vertex="1" parent="1">
          <mxGeometry x="150" y="220" width="10" height="20" as="geometry" />
        </mxCell>
        <mxCell id="IB7GVzu5P3_bkm7AfhHR-21" value="" style="rounded=0;whiteSpace=wrap;html=1;fillColor=#e5dc7b;" vertex="1" parent="1">
          <mxGeometry x="160" y="220" width="10" height="20" as="geometry" />
        </mxCell>
        <mxCell id="IB7GVzu5P3_bkm7AfhHR-22" value="" style="rounded=0;whiteSpace=wrap;html=1;fillColor=#e5dc7b;" vertex="1" parent="1">
          <mxGeometry x="170" y="220" width="10" height="20" as="geometry" />
        </mxCell>
        <mxCell id="IB7GVzu5P3_bkm7AfhHR-23" value="" style="rounded=0;whiteSpace=wrap;html=1;fillColor=#e5dc7b;" vertex="1" parent="1">
          <mxGeometry x="180" y="220" width="10" height="20" as="geometry" />
        </mxCell>
        <mxCell id="IB7GVzu5P3_bkm7AfhHR-24" value="" style="rounded=0;whiteSpace=wrap;html=1;fillColor=#e5dc7b;" vertex="1" parent="1">
          <mxGeometry x="190" y="220" width="10" height="20" as="geometry" />
        </mxCell>
        <mxCell id="IB7GVzu5P3_bkm7AfhHR-25" value="" style="rounded=0;whiteSpace=wrap;html=1;fillColor=#e5dc7b;" vertex="1" parent="1">
          <mxGeometry x="200" y="220" width="10" height="20" as="geometry" />
        </mxCell>
        <mxCell id="IB7GVzu5P3_bkm7AfhHR-26" value="" style="rounded=0;whiteSpace=wrap;html=1;fillColor=#e5dc7b;" vertex="1" parent="1">
          <mxGeometry x="210" y="220" width="10" height="20" as="geometry" />
        </mxCell>
        <mxCell id="IB7GVzu5P3_bkm7AfhHR-27" value="" style="rounded=0;whiteSpace=wrap;html=1;fillColor=#e5dc7b;" vertex="1" parent="1">
          <mxGeometry x="220" y="220" width="10" height="20" as="geometry" />
        </mxCell>
        <mxCell id="IB7GVzu5P3_bkm7AfhHR-28" value="" style="rounded=0;whiteSpace=wrap;html=1;fillColor=#e5dc7b;" vertex="1" parent="1">
          <mxGeometry x="230" y="220" width="10" height="20" as="geometry" />
        </mxCell>
        <mxCell id="IB7GVzu5P3_bkm7AfhHR-29" value="" style="rounded=0;whiteSpace=wrap;html=1;fillColor=#e5dc7b;" vertex="1" parent="1">
          <mxGeometry x="240" y="220" width="10" height="20" as="geometry" />
        </mxCell>
        <mxCell id="IB7GVzu5P3_bkm7AfhHR-30" value="" style="rounded=0;whiteSpace=wrap;html=1;fillColor=#e5dc7b;" vertex="1" parent="1">
          <mxGeometry x="250" y="220" width="10" height="20" as="geometry" />
        </mxCell>
        <mxCell id="IB7GVzu5P3_bkm7AfhHR-31" value="" style="rounded=0;whiteSpace=wrap;html=1;fillColor=#e5dc7b;" vertex="1" parent="1">
          <mxGeometry x="260" y="220" width="10" height="20" as="geometry" />
        </mxCell>
        <mxCell id="IB7GVzu5P3_bkm7AfhHR-32" value="" style="rounded=0;whiteSpace=wrap;html=1;fillColor=#e5dc7b;" vertex="1" parent="1">
          <mxGeometry x="270" y="220" width="10" height="20" as="geometry" />
        </mxCell>
        <mxCell id="IB7GVzu5P3_bkm7AfhHR-33" value="" style="rounded=0;whiteSpace=wrap;html=1;fillColor=#e5dc7b;" vertex="1" parent="1">
          <mxGeometry x="280" y="220" width="10" height="20" as="geometry" />
        </mxCell>
        <mxCell id="IB7GVzu5P3_bkm7AfhHR-34" value="" style="rounded=0;whiteSpace=wrap;html=1;fillColor=#e5dc7b;" vertex="1" parent="1">
          <mxGeometry x="290" y="220" width="10" height="20" as="geometry" />
        </mxCell>
        <mxCell id="IB7GVzu5P3_bkm7AfhHR-35" value="" style="rounded=0;whiteSpace=wrap;html=1;fillColor=#e5dc7b;" vertex="1" parent="1">
          <mxGeometry x="300" y="220" width="10" height="20" as="geometry" />
        </mxCell>
        <mxCell id="IB7GVzu5P3_bkm7AfhHR-36" value="" style="rounded=0;whiteSpace=wrap;html=1;fillColor=#e5dc7b;" vertex="1" parent="1">
          <mxGeometry x="310" y="220" width="10" height="20" as="geometry" />
        </mxCell>
        <mxCell id="IB7GVzu5P3_bkm7AfhHR-37" value="" style="rounded=0;whiteSpace=wrap;html=1;fillColor=#e5dc7b;" vertex="1" parent="1">
          <mxGeometry x="320" y="220" width="10" height="20" as="geometry" />
        </mxCell>
        <mxCell id="IB7GVzu5P3_bkm7AfhHR-38" value="" style="rounded=0;whiteSpace=wrap;html=1;fillColor=#e5dc7b;" vertex="1" parent="1">
          <mxGeometry x="330" y="220" width="10" height="20" as="geometry" />
        </mxCell>
        <mxCell id="IB7GVzu5P3_bkm7AfhHR-39" value="" style="rounded=0;whiteSpace=wrap;html=1;fillColor=#e5dc7b;" vertex="1" parent="1">
          <mxGeometry x="340" y="220" width="10" height="20" as="geometry" />
        </mxCell>
        <mxCell id="IB7GVzu5P3_bkm7AfhHR-40" value="" style="rounded=0;whiteSpace=wrap;html=1;fillColor=#e5dc7b;" vertex="1" parent="1">
          <mxGeometry x="350" y="220" width="10" height="20" as="geometry" />
        </mxCell>
        <mxCell id="IB7GVzu5P3_bkm7AfhHR-41" value="" style="rounded=0;whiteSpace=wrap;html=1;fillColor=#e5dc7b;" vertex="1" parent="1">
          <mxGeometry x="360" y="220" width="10" height="20" as="geometry" />
        </mxCell>
        <mxCell id="IB7GVzu5P3_bkm7AfhHR-42" value="" style="rounded=0;whiteSpace=wrap;html=1;fillColor=#e5dc7b;" vertex="1" parent="1">
          <mxGeometry x="370" y="220" width="10" height="20" as="geometry" />
        </mxCell>
        <mxCell id="IB7GVzu5P3_bkm7AfhHR-43" value="" style="rounded=0;whiteSpace=wrap;html=1;fillColor=#e5dc7b;" vertex="1" parent="1">
          <mxGeometry x="380" y="220" width="10" height="20" as="geometry" />
        </mxCell>
        <mxCell id="IB7GVzu5P3_bkm7AfhHR-44" value="" style="rounded=0;whiteSpace=wrap;html=1;fillColor=#e5dc7b;" vertex="1" parent="1">
          <mxGeometry x="390" y="220" width="10" height="20" as="geometry" />
        </mxCell>
        <mxCell id="IB7GVzu5P3_bkm7AfhHR-45" value="" style="rounded=0;whiteSpace=wrap;html=1;fillColor=#e5dc7b;" vertex="1" parent="1">
          <mxGeometry x="400" y="220" width="10" height="20" as="geometry" />
        </mxCell>
        <mxCell id="IB7GVzu5P3_bkm7AfhHR-46" value="" style="rounded=0;whiteSpace=wrap;html=1;fillColor=#e5dc7b;" vertex="1" parent="1">
          <mxGeometry x="410" y="220" width="10" height="20" as="geometry" />
        </mxCell>
        <mxCell id="IB7GVzu5P3_bkm7AfhHR-47" value="" style="rounded=0;whiteSpace=wrap;html=1;fillColor=#e5dc7b;" vertex="1" parent="1">
          <mxGeometry x="420" y="220" width="10" height="20" as="geometry" />
        </mxCell>
        <mxCell id="IB7GVzu5P3_bkm7AfhHR-48" value="" style="rounded=0;whiteSpace=wrap;html=1;fillColor=#e5dc7b;" vertex="1" parent="1">
          <mxGeometry x="430" y="220" width="10" height="20" as="geometry" />
        </mxCell>
        <mxCell id="IB7GVzu5P3_bkm7AfhHR-49" value="" style="rounded=0;whiteSpace=wrap;html=1;fillColor=#e5dc7b;" vertex="1" parent="1">
          <mxGeometry x="440" y="220" width="10" height="20" as="geometry" />
        </mxCell>
        <mxCell id="IB7GVzu5P3_bkm7AfhHR-53" value="" style="rounded=0;whiteSpace=wrap;html=1;fillColor=#e5dc7b;" vertex="1" parent="1">
          <mxGeometry x="480" y="220" width="10" height="20" as="geometry" />
        </mxCell>
        <mxCell id="IB7GVzu5P3_bkm7AfhHR-54" value="" style="rounded=0;whiteSpace=wrap;html=1;fillColor=#e5dc7b;" vertex="1" parent="1">
          <mxGeometry x="490" y="220" width="10" height="20" as="geometry" />
        </mxCell>
        <mxCell id="IB7GVzu5P3_bkm7AfhHR-55" value="" style="rounded=0;whiteSpace=wrap;html=1;fillColor=#e5dc7b;" vertex="1" parent="1">
          <mxGeometry x="500" y="220" width="10" height="20" as="geometry" />
        </mxCell>
        <mxCell id="IB7GVzu5P3_bkm7AfhHR-56" value="" style="rounded=0;whiteSpace=wrap;html=1;fillColor=#e5dc7b;" vertex="1" parent="1">
          <mxGeometry x="510" y="220" width="10" height="20" as="geometry" />
        </mxCell>
        <mxCell id="IB7GVzu5P3_bkm7AfhHR-57" value="" style="rounded=0;whiteSpace=wrap;html=1;fillColor=#e5dc7b;" vertex="1" parent="1">
          <mxGeometry x="520" y="220" width="10" height="20" as="geometry" />
        </mxCell>
        <mxCell id="IB7GVzu5P3_bkm7AfhHR-58" value="" style="rounded=0;whiteSpace=wrap;html=1;fillColor=#e5dc7b;" vertex="1" parent="1">
          <mxGeometry x="530" y="220" width="10" height="20" as="geometry" />
        </mxCell>
        <mxCell id="IB7GVzu5P3_bkm7AfhHR-59" value="" style="rounded=0;whiteSpace=wrap;html=1;fillColor=#e5dc7b;" vertex="1" parent="1">
          <mxGeometry x="540" y="220" width="10" height="20" as="geometry" />
        </mxCell>
        <mxCell id="IB7GVzu5P3_bkm7AfhHR-60" value="" style="rounded=0;whiteSpace=wrap;html=1;fillColor=#e5dc7b;" vertex="1" parent="1">
          <mxGeometry x="550" y="220" width="10" height="20" as="geometry" />
        </mxCell>
        <mxCell id="IB7GVzu5P3_bkm7AfhHR-61" value="" style="rounded=0;whiteSpace=wrap;html=1;fillColor=#e5dc7b;" vertex="1" parent="1">
          <mxGeometry x="560" y="220" width="10" height="20" as="geometry" />
        </mxCell>
        <mxCell id="IB7GVzu5P3_bkm7AfhHR-62" value="" style="rounded=0;whiteSpace=wrap;html=1;fillColor=#e5dc7b;" vertex="1" parent="1">
          <mxGeometry x="570" y="220" width="10" height="20" as="geometry" />
        </mxCell>
        <mxCell id="IB7GVzu5P3_bkm7AfhHR-63" value="" style="rounded=0;whiteSpace=wrap;html=1;fillColor=#e5dc7b;" vertex="1" parent="1">
          <mxGeometry x="580" y="220" width="10" height="20" as="geometry" />
        </mxCell>
        <mxCell id="IB7GVzu5P3_bkm7AfhHR-64" value="" style="rounded=0;whiteSpace=wrap;html=1;fillColor=#e5dc7b;" vertex="1" parent="1">
          <mxGeometry x="590" y="220" width="10" height="20" as="geometry" />
        </mxCell>
        <mxCell id="IB7GVzu5P3_bkm7AfhHR-65" value="" style="rounded=0;whiteSpace=wrap;html=1;fillColor=#e5dc7b;" vertex="1" parent="1">
          <mxGeometry x="600" y="220" width="10" height="20" as="geometry" />
        </mxCell>
        <mxCell id="IB7GVzu5P3_bkm7AfhHR-66" value="" style="rounded=0;whiteSpace=wrap;html=1;fillColor=#e5dc7b;" vertex="1" parent="1">
          <mxGeometry x="610" y="220" width="10" height="20" as="geometry" />
        </mxCell>
        <mxCell id="IB7GVzu5P3_bkm7AfhHR-67" value="" style="rounded=0;whiteSpace=wrap;html=1;fillColor=#e5dc7b;" vertex="1" parent="1">
          <mxGeometry x="620" y="220" width="10" height="20" as="geometry" />
        </mxCell>
        <mxCell id="IB7GVzu5P3_bkm7AfhHR-68" value="" style="rounded=0;whiteSpace=wrap;html=1;fillColor=#e5dc7b;" vertex="1" parent="1">
          <mxGeometry x="630" y="220" width="10" height="20" as="geometry" />
        </mxCell>
        <mxCell id="IB7GVzu5P3_bkm7AfhHR-69" value="" style="rounded=0;whiteSpace=wrap;html=1;fillColor=#e5dc7b;" vertex="1" parent="1">
          <mxGeometry x="640" y="220" width="10" height="20" as="geometry" />
        </mxCell>
        <mxCell id="IB7GVzu5P3_bkm7AfhHR-70" value="" style="rounded=0;whiteSpace=wrap;html=1;fillColor=#e5dc7b;" vertex="1" parent="1">
          <mxGeometry x="650" y="220" width="10" height="20" as="geometry" />
        </mxCell>
        <mxCell id="IB7GVzu5P3_bkm7AfhHR-71" value="" style="rounded=0;whiteSpace=wrap;html=1;fillColor=#e5dc7b;" vertex="1" parent="1">
          <mxGeometry x="660" y="220" width="10" height="20" as="geometry" />
        </mxCell>
        <mxCell id="IB7GVzu5P3_bkm7AfhHR-72" value="" style="rounded=0;whiteSpace=wrap;html=1;fillColor=#e5dc7b;" vertex="1" parent="1">
          <mxGeometry x="670" y="220" width="10" height="20" as="geometry" />
        </mxCell>
        <mxCell id="IB7GVzu5P3_bkm7AfhHR-73" value="" style="rounded=0;whiteSpace=wrap;html=1;fillColor=#e5dc7b;" vertex="1" parent="1">
          <mxGeometry x="680" y="220" width="10" height="20" as="geometry" />
        </mxCell>
        <mxCell id="IB7GVzu5P3_bkm7AfhHR-74" value="" style="rounded=0;whiteSpace=wrap;html=1;fillColor=#e5dc7b;" vertex="1" parent="1">
          <mxGeometry x="690" y="220" width="10" height="20" as="geometry" />
        </mxCell>
        <mxCell id="IB7GVzu5P3_bkm7AfhHR-75" value="" style="rounded=0;whiteSpace=wrap;html=1;fillColor=#e5dc7b;" vertex="1" parent="1">
          <mxGeometry x="700" y="220" width="10" height="20" as="geometry" />
        </mxCell>
        <mxCell id="IB7GVzu5P3_bkm7AfhHR-76" value="" style="rounded=0;whiteSpace=wrap;html=1;fillColor=#e5dc7b;" vertex="1" parent="1">
          <mxGeometry x="710" y="220" width="10" height="20" as="geometry" />
        </mxCell>
        <mxCell id="IB7GVzu5P3_bkm7AfhHR-77" value="" style="rounded=0;whiteSpace=wrap;html=1;fillColor=#e5dc7b;" vertex="1" parent="1">
          <mxGeometry x="720" y="220" width="10" height="20" as="geometry" />
        </mxCell>
        <mxCell id="IB7GVzu5P3_bkm7AfhHR-78" value="" style="rounded=0;whiteSpace=wrap;html=1;fillColor=#e5dc7b;" vertex="1" parent="1">
          <mxGeometry x="730" y="220" width="10" height="20" as="geometry" />
        </mxCell>
        <mxCell id="IB7GVzu5P3_bkm7AfhHR-79" value="" style="rounded=0;whiteSpace=wrap;html=1;fillColor=#e5dc7b;" vertex="1" parent="1">
          <mxGeometry x="740" y="220" width="10" height="20" as="geometry" />
        </mxCell>
        <mxCell id="IB7GVzu5P3_bkm7AfhHR-80" value="" style="rounded=0;whiteSpace=wrap;html=1;fillColor=#e5dc7b;" vertex="1" parent="1">
          <mxGeometry x="750" y="220" width="10" height="20" as="geometry" />
        </mxCell>
        <mxCell id="IB7GVzu5P3_bkm7AfhHR-81" value="" style="rounded=0;whiteSpace=wrap;html=1;fillColor=#e5dc7b;" vertex="1" parent="1">
          <mxGeometry x="760" y="220" width="10" height="20" as="geometry" />
        </mxCell>
        <mxCell id="IB7GVzu5P3_bkm7AfhHR-82" value="" style="rounded=0;whiteSpace=wrap;html=1;fillColor=#e5dc7b;" vertex="1" parent="1">
          <mxGeometry x="770" y="220" width="10" height="20" as="geometry" />
        </mxCell>
        <mxCell id="IB7GVzu5P3_bkm7AfhHR-83" value="" style="rounded=0;whiteSpace=wrap;html=1;fillColor=#e5dc7b;" vertex="1" parent="1">
          <mxGeometry x="780" y="220" width="10" height="20" as="geometry" />
        </mxCell>
        <mxCell id="IB7GVzu5P3_bkm7AfhHR-84" value="" style="rounded=0;whiteSpace=wrap;html=1;fillColor=#e5dc7b;" vertex="1" parent="1">
          <mxGeometry x="790" y="220" width="10" height="20" as="geometry" />
        </mxCell>
        <mxCell id="IB7GVzu5P3_bkm7AfhHR-85" value="" style="rounded=0;whiteSpace=wrap;html=1;fillColor=#e5dc7b;" vertex="1" parent="1">
          <mxGeometry x="800" y="220" width="10" height="20" as="geometry" />
        </mxCell>
        <mxCell id="IB7GVzu5P3_bkm7AfhHR-86" value="" style="rounded=0;whiteSpace=wrap;html=1;fillColor=#e5dc7b;" vertex="1" parent="1">
          <mxGeometry x="810" y="220" width="10" height="20" as="geometry" />
        </mxCell>
        <mxCell id="IB7GVzu5P3_bkm7AfhHR-87" value="" style="rounded=0;whiteSpace=wrap;html=1;fillColor=#e5dc7b;" vertex="1" parent="1">
          <mxGeometry x="820" y="220" width="10" height="20" as="geometry" />
        </mxCell>
        <mxCell id="IB7GVzu5P3_bkm7AfhHR-88" value="" style="rounded=0;whiteSpace=wrap;html=1;fillColor=#e5dc7b;" vertex="1" parent="1">
          <mxGeometry x="830" y="220" width="10" height="20" as="geometry" />
        </mxCell>
        <mxCell id="IB7GVzu5P3_bkm7AfhHR-89" value="" style="rounded=0;whiteSpace=wrap;html=1;fillColor=#e5dc7b;" vertex="1" parent="1">
          <mxGeometry x="840" y="220" width="10" height="20" as="geometry" />
        </mxCell>
        <mxCell id="IB7GVzu5P3_bkm7AfhHR-90" value="" style="rounded=0;whiteSpace=wrap;html=1;fillColor=#e5dc7b;" vertex="1" parent="1">
          <mxGeometry x="850" y="220" width="10" height="20" as="geometry" />
        </mxCell>
        <mxCell id="IB7GVzu5P3_bkm7AfhHR-91" value="" style="rounded=0;whiteSpace=wrap;html=1;fillColor=#e5dc7b;" vertex="1" parent="1">
          <mxGeometry x="860" y="220" width="10" height="20" as="geometry" />
        </mxCell>
        <mxCell id="IB7GVzu5P3_bkm7AfhHR-92" value="" style="shape=or;whiteSpace=wrap;html=1;direction=north;" vertex="1" parent="1">
          <mxGeometry x="457" y="210" width="15" height="30" as="geometry" />
        </mxCell>
        <mxCell id="IB7GVzu5P3_bkm7AfhHR-93" value="" style="rounded=0;whiteSpace=wrap;html=1;fillColor=#2e7956;direction=south;" vertex="1" parent="1">
          <mxGeometry x="960" y="280" width="160" height="820" as="geometry" />
        </mxCell>
        <mxCell id="IB7GVzu5P3_bkm7AfhHR-102" value="&lt;span style=&quot;color: rgb(163, 159, 159); font-size: 22px;&quot;&gt;x4&lt;/span&gt;" style="rounded=0;whiteSpace=wrap;html=1;strokeColor=#454744;fillColor=#464646;direction=south;" vertex="1" parent="1">
          <mxGeometry x="1020" y="380" width="80" height="60" as="geometry" />
        </mxCell>
        <mxCell id="IB7GVzu5P3_bkm7AfhHR-103" value="&lt;font color=&quot;#a39f9f&quot; style=&quot;font-size: 22px;&quot;&gt;x4&lt;/font&gt;" style="rounded=0;whiteSpace=wrap;html=1;strokeColor=#454744;fillColor=#464646;direction=south;" vertex="1" parent="1">
          <mxGeometry x="1020" y="300" width="80" height="60" as="geometry" />
        </mxCell>
        <mxCell id="IB7GVzu5P3_bkm7AfhHR-180" value="" style="rounded=0;whiteSpace=wrap;html=1;fillColor=#e5dc7b;direction=south;" vertex="1" parent="1">
          <mxGeometry x="960" y="290" width="20" height="10" as="geometry" />
        </mxCell>
        <mxCell id="IB7GVzu5P3_bkm7AfhHR-181" value="" style="shape=or;whiteSpace=wrap;html=1;direction=east;" vertex="1" parent="1">
          <mxGeometry x="960" y="685" width="30" height="15" as="geometry" />
        </mxCell>
        <mxCell id="IB7GVzu5P3_bkm7AfhHR-182" value="&lt;span style=&quot;color: rgb(163, 159, 159); font-size: 22px;&quot;&gt;x4&lt;/span&gt;" style="rounded=0;whiteSpace=wrap;html=1;strokeColor=#454744;fillColor=#464646;direction=south;" vertex="1" parent="1">
          <mxGeometry x="1020" y="460" width="80" height="60" as="geometry" />
        </mxCell>
        <mxCell id="IB7GVzu5P3_bkm7AfhHR-183" value="&lt;span style=&quot;color: rgb(163, 159, 159); font-size: 22px;&quot;&gt;x4&lt;/span&gt;" style="rounded=0;whiteSpace=wrap;html=1;strokeColor=#454744;fillColor=#464646;direction=south;" vertex="1" parent="1">
          <mxGeometry x="1020" y="540" width="80" height="60" as="geometry" />
        </mxCell>
        <mxCell id="IB7GVzu5P3_bkm7AfhHR-184" value="&lt;span style=&quot;color: rgb(163, 159, 159); font-size: 22px;&quot;&gt;x4&lt;/span&gt;" style="rounded=0;whiteSpace=wrap;html=1;strokeColor=#454744;fillColor=#464646;direction=south;" vertex="1" parent="1">
          <mxGeometry x="1020" y="700" width="80" height="60" as="geometry" />
        </mxCell>
        <mxCell id="IB7GVzu5P3_bkm7AfhHR-185" value="&lt;span style=&quot;color: rgb(163, 159, 159); font-size: 22px;&quot;&gt;x4&lt;/span&gt;" style="rounded=0;whiteSpace=wrap;html=1;strokeColor=#454744;fillColor=#464646;direction=south;" vertex="1" parent="1">
          <mxGeometry x="1020" y="620" width="80" height="60" as="geometry" />
        </mxCell>
        <mxCell id="IB7GVzu5P3_bkm7AfhHR-186" value="&lt;span style=&quot;color: rgb(163, 159, 159); font-size: 22px;&quot;&gt;x4&lt;/span&gt;" style="rounded=0;whiteSpace=wrap;html=1;strokeColor=#454744;fillColor=#464646;direction=south;" vertex="1" parent="1">
          <mxGeometry x="1020" y="780" width="80" height="60" as="geometry" />
        </mxCell>
        <mxCell id="IB7GVzu5P3_bkm7AfhHR-187" value="&lt;span style=&quot;color: rgb(163, 159, 159); font-size: 22px;&quot;&gt;x4&lt;/span&gt;" style="rounded=0;whiteSpace=wrap;html=1;strokeColor=#454744;fillColor=#464646;direction=south;" vertex="1" parent="1">
          <mxGeometry x="1020" y="860" width="80" height="60" as="geometry" />
        </mxCell>
        <mxCell id="IB7GVzu5P3_bkm7AfhHR-188" value="&lt;span style=&quot;color: rgb(163, 159, 159); font-size: 22px;&quot;&gt;x4&lt;/span&gt;" style="rounded=0;whiteSpace=wrap;html=1;strokeColor=#454744;fillColor=#464646;direction=south;" vertex="1" parent="1">
          <mxGeometry x="1020" y="1020" width="80" height="60" as="geometry" />
        </mxCell>
        <mxCell id="IB7GVzu5P3_bkm7AfhHR-189" value="&lt;span style=&quot;color: rgb(163, 159, 159); font-size: 22px;&quot;&gt;x4&lt;/span&gt;" style="rounded=0;whiteSpace=wrap;html=1;strokeColor=#454744;fillColor=#464646;direction=south;" vertex="1" parent="1">
          <mxGeometry x="1020" y="940" width="80" height="60" as="geometry" />
        </mxCell>
        <mxCell id="IB7GVzu5P3_bkm7AfhHR-192" value="" style="rounded=0;whiteSpace=wrap;html=1;fillColor=#e5dc7b;direction=south;" vertex="1" parent="1">
          <mxGeometry x="960" y="300" width="20" height="10" as="geometry" />
        </mxCell>
        <mxCell id="IB7GVzu5P3_bkm7AfhHR-193" value="" style="rounded=0;whiteSpace=wrap;html=1;fillColor=#e5dc7b;direction=south;" vertex="1" parent="1">
          <mxGeometry x="960" y="310" width="20" height="10" as="geometry" />
        </mxCell>
        <mxCell id="IB7GVzu5P3_bkm7AfhHR-194" value="" style="rounded=0;whiteSpace=wrap;html=1;fillColor=#e5dc7b;direction=south;" vertex="1" parent="1">
          <mxGeometry x="960" y="320" width="20" height="10" as="geometry" />
        </mxCell>
        <mxCell id="IB7GVzu5P3_bkm7AfhHR-195" value="" style="rounded=0;whiteSpace=wrap;html=1;fillColor=#e5dc7b;direction=south;" vertex="1" parent="1">
          <mxGeometry x="960" y="330" width="20" height="10" as="geometry" />
        </mxCell>
        <mxCell id="IB7GVzu5P3_bkm7AfhHR-196" value="" style="rounded=0;whiteSpace=wrap;html=1;fillColor=#e5dc7b;direction=south;" vertex="1" parent="1">
          <mxGeometry x="960" y="340" width="20" height="10" as="geometry" />
        </mxCell>
        <mxCell id="IB7GVzu5P3_bkm7AfhHR-197" value="" style="rounded=0;whiteSpace=wrap;html=1;fillColor=#e5dc7b;direction=south;" vertex="1" parent="1">
          <mxGeometry x="960" y="350" width="20" height="10" as="geometry" />
        </mxCell>
        <mxCell id="IB7GVzu5P3_bkm7AfhHR-198" value="" style="rounded=0;whiteSpace=wrap;html=1;fillColor=#e5dc7b;direction=south;" vertex="1" parent="1">
          <mxGeometry x="960" y="360" width="20" height="10" as="geometry" />
        </mxCell>
        <mxCell id="IB7GVzu5P3_bkm7AfhHR-199" value="" style="rounded=0;whiteSpace=wrap;html=1;fillColor=#e5dc7b;direction=south;" vertex="1" parent="1">
          <mxGeometry x="960" y="370" width="20" height="10" as="geometry" />
        </mxCell>
        <mxCell id="IB7GVzu5P3_bkm7AfhHR-200" value="" style="rounded=0;whiteSpace=wrap;html=1;fillColor=#e5dc7b;direction=south;" vertex="1" parent="1">
          <mxGeometry x="960" y="380" width="20" height="10" as="geometry" />
        </mxCell>
        <mxCell id="IB7GVzu5P3_bkm7AfhHR-201" value="" style="rounded=0;whiteSpace=wrap;html=1;fillColor=#e5dc7b;direction=south;" vertex="1" parent="1">
          <mxGeometry x="960" y="390" width="20" height="10" as="geometry" />
        </mxCell>
        <mxCell id="IB7GVzu5P3_bkm7AfhHR-202" value="" style="rounded=0;whiteSpace=wrap;html=1;fillColor=#e5dc7b;direction=south;" vertex="1" parent="1">
          <mxGeometry x="960" y="400" width="20" height="10" as="geometry" />
        </mxCell>
        <mxCell id="IB7GVzu5P3_bkm7AfhHR-203" value="" style="rounded=0;whiteSpace=wrap;html=1;fillColor=#e5dc7b;direction=south;" vertex="1" parent="1">
          <mxGeometry x="960" y="410" width="20" height="10" as="geometry" />
        </mxCell>
        <mxCell id="IB7GVzu5P3_bkm7AfhHR-204" value="" style="rounded=0;whiteSpace=wrap;html=1;fillColor=#e5dc7b;direction=south;" vertex="1" parent="1">
          <mxGeometry x="960" y="420" width="20" height="10" as="geometry" />
        </mxCell>
        <mxCell id="IB7GVzu5P3_bkm7AfhHR-205" value="" style="rounded=0;whiteSpace=wrap;html=1;fillColor=#e5dc7b;direction=south;" vertex="1" parent="1">
          <mxGeometry x="960" y="430" width="20" height="10" as="geometry" />
        </mxCell>
        <mxCell id="IB7GVzu5P3_bkm7AfhHR-206" value="" style="rounded=0;whiteSpace=wrap;html=1;fillColor=#e5dc7b;direction=south;" vertex="1" parent="1">
          <mxGeometry x="960" y="440" width="20" height="10" as="geometry" />
        </mxCell>
        <mxCell id="IB7GVzu5P3_bkm7AfhHR-207" value="" style="rounded=0;whiteSpace=wrap;html=1;fillColor=#e5dc7b;direction=south;" vertex="1" parent="1">
          <mxGeometry x="960" y="450" width="20" height="10" as="geometry" />
        </mxCell>
        <mxCell id="IB7GVzu5P3_bkm7AfhHR-208" value="" style="rounded=0;whiteSpace=wrap;html=1;fillColor=#e5dc7b;direction=south;" vertex="1" parent="1">
          <mxGeometry x="960" y="460" width="20" height="10" as="geometry" />
        </mxCell>
        <mxCell id="IB7GVzu5P3_bkm7AfhHR-209" value="" style="rounded=0;whiteSpace=wrap;html=1;fillColor=#e5dc7b;direction=south;" vertex="1" parent="1">
          <mxGeometry x="960" y="470" width="20" height="10" as="geometry" />
        </mxCell>
        <mxCell id="IB7GVzu5P3_bkm7AfhHR-210" value="" style="rounded=0;whiteSpace=wrap;html=1;fillColor=#e5dc7b;direction=south;" vertex="1" parent="1">
          <mxGeometry x="960" y="480" width="20" height="10" as="geometry" />
        </mxCell>
        <mxCell id="IB7GVzu5P3_bkm7AfhHR-211" value="" style="rounded=0;whiteSpace=wrap;html=1;fillColor=#e5dc7b;direction=south;" vertex="1" parent="1">
          <mxGeometry x="960" y="490" width="20" height="10" as="geometry" />
        </mxCell>
        <mxCell id="IB7GVzu5P3_bkm7AfhHR-212" value="" style="rounded=0;whiteSpace=wrap;html=1;fillColor=#e5dc7b;direction=south;" vertex="1" parent="1">
          <mxGeometry x="960" y="500" width="20" height="10" as="geometry" />
        </mxCell>
        <mxCell id="IB7GVzu5P3_bkm7AfhHR-213" value="" style="rounded=0;whiteSpace=wrap;html=1;fillColor=#e5dc7b;direction=south;" vertex="1" parent="1">
          <mxGeometry x="960" y="510" width="20" height="10" as="geometry" />
        </mxCell>
        <mxCell id="IB7GVzu5P3_bkm7AfhHR-214" value="" style="rounded=0;whiteSpace=wrap;html=1;fillColor=#e5dc7b;direction=south;" vertex="1" parent="1">
          <mxGeometry x="960" y="520" width="20" height="10" as="geometry" />
        </mxCell>
        <mxCell id="IB7GVzu5P3_bkm7AfhHR-215" value="" style="rounded=0;whiteSpace=wrap;html=1;fillColor=#e5dc7b;direction=south;" vertex="1" parent="1">
          <mxGeometry x="960" y="530" width="20" height="10" as="geometry" />
        </mxCell>
        <mxCell id="IB7GVzu5P3_bkm7AfhHR-216" value="" style="rounded=0;whiteSpace=wrap;html=1;fillColor=#e5dc7b;direction=south;" vertex="1" parent="1">
          <mxGeometry x="960" y="540" width="20" height="10" as="geometry" />
        </mxCell>
        <mxCell id="IB7GVzu5P3_bkm7AfhHR-217" value="" style="rounded=0;whiteSpace=wrap;html=1;fillColor=#e5dc7b;direction=south;" vertex="1" parent="1">
          <mxGeometry x="960" y="550" width="20" height="10" as="geometry" />
        </mxCell>
        <mxCell id="IB7GVzu5P3_bkm7AfhHR-218" value="" style="rounded=0;whiteSpace=wrap;html=1;fillColor=#e5dc7b;direction=south;" vertex="1" parent="1">
          <mxGeometry x="960" y="560" width="20" height="10" as="geometry" />
        </mxCell>
        <mxCell id="IB7GVzu5P3_bkm7AfhHR-219" value="" style="rounded=0;whiteSpace=wrap;html=1;fillColor=#e5dc7b;direction=south;" vertex="1" parent="1">
          <mxGeometry x="960" y="570" width="20" height="10" as="geometry" />
        </mxCell>
        <mxCell id="IB7GVzu5P3_bkm7AfhHR-220" value="" style="rounded=0;whiteSpace=wrap;html=1;fillColor=#e5dc7b;direction=south;" vertex="1" parent="1">
          <mxGeometry x="960" y="580" width="20" height="10" as="geometry" />
        </mxCell>
        <mxCell id="IB7GVzu5P3_bkm7AfhHR-221" value="" style="rounded=0;whiteSpace=wrap;html=1;fillColor=#e5dc7b;direction=south;" vertex="1" parent="1">
          <mxGeometry x="960" y="590" width="20" height="10" as="geometry" />
        </mxCell>
        <mxCell id="IB7GVzu5P3_bkm7AfhHR-222" value="" style="rounded=0;whiteSpace=wrap;html=1;fillColor=#e5dc7b;direction=south;" vertex="1" parent="1">
          <mxGeometry x="960" y="600" width="20" height="10" as="geometry" />
        </mxCell>
        <mxCell id="IB7GVzu5P3_bkm7AfhHR-255" value="" style="rounded=0;whiteSpace=wrap;html=1;fillColor=#e5dc7b;direction=south;" vertex="1" parent="1">
          <mxGeometry x="960" y="610" width="20" height="10" as="geometry" />
        </mxCell>
        <mxCell id="IB7GVzu5P3_bkm7AfhHR-256" value="" style="rounded=0;whiteSpace=wrap;html=1;fillColor=#e5dc7b;direction=south;" vertex="1" parent="1">
          <mxGeometry x="960" y="620" width="20" height="10" as="geometry" />
        </mxCell>
        <mxCell id="IB7GVzu5P3_bkm7AfhHR-257" value="" style="rounded=0;whiteSpace=wrap;html=1;fillColor=#e5dc7b;direction=south;" vertex="1" parent="1">
          <mxGeometry x="960" y="630" width="20" height="10" as="geometry" />
        </mxCell>
        <mxCell id="IB7GVzu5P3_bkm7AfhHR-258" value="" style="rounded=0;whiteSpace=wrap;html=1;fillColor=#e5dc7b;direction=south;" vertex="1" parent="1">
          <mxGeometry x="960" y="640" width="20" height="10" as="geometry" />
        </mxCell>
        <mxCell id="IB7GVzu5P3_bkm7AfhHR-259" value="" style="rounded=0;whiteSpace=wrap;html=1;fillColor=#e5dc7b;direction=south;" vertex="1" parent="1">
          <mxGeometry x="960" y="650" width="20" height="10" as="geometry" />
        </mxCell>
        <mxCell id="IB7GVzu5P3_bkm7AfhHR-260" value="" style="rounded=0;whiteSpace=wrap;html=1;fillColor=#e5dc7b;direction=south;" vertex="1" parent="1">
          <mxGeometry x="960" y="660" width="20" height="10" as="geometry" />
        </mxCell>
        <mxCell id="IB7GVzu5P3_bkm7AfhHR-261" value="" style="rounded=0;whiteSpace=wrap;html=1;fillColor=#e5dc7b;direction=south;" vertex="1" parent="1">
          <mxGeometry x="960" y="670" width="20" height="10" as="geometry" />
        </mxCell>
        <mxCell id="IB7GVzu5P3_bkm7AfhHR-265" value="" style="rounded=0;whiteSpace=wrap;html=1;fillColor=#e5dc7b;direction=south;" vertex="1" parent="1">
          <mxGeometry x="960" y="710" width="20" height="10" as="geometry" />
        </mxCell>
        <mxCell id="IB7GVzu5P3_bkm7AfhHR-266" value="" style="rounded=0;whiteSpace=wrap;html=1;fillColor=#e5dc7b;direction=south;" vertex="1" parent="1">
          <mxGeometry x="960" y="720" width="20" height="10" as="geometry" />
        </mxCell>
        <mxCell id="IB7GVzu5P3_bkm7AfhHR-267" value="" style="rounded=0;whiteSpace=wrap;html=1;fillColor=#e5dc7b;direction=south;" vertex="1" parent="1">
          <mxGeometry x="960" y="730" width="20" height="10" as="geometry" />
        </mxCell>
        <mxCell id="IB7GVzu5P3_bkm7AfhHR-268" value="" style="rounded=0;whiteSpace=wrap;html=1;fillColor=#e5dc7b;direction=south;" vertex="1" parent="1">
          <mxGeometry x="960" y="740" width="20" height="10" as="geometry" />
        </mxCell>
        <mxCell id="IB7GVzu5P3_bkm7AfhHR-269" value="" style="rounded=0;whiteSpace=wrap;html=1;fillColor=#e5dc7b;direction=south;" vertex="1" parent="1">
          <mxGeometry x="960" y="750" width="20" height="10" as="geometry" />
        </mxCell>
        <mxCell id="IB7GVzu5P3_bkm7AfhHR-270" value="" style="rounded=0;whiteSpace=wrap;html=1;fillColor=#e5dc7b;direction=south;" vertex="1" parent="1">
          <mxGeometry x="960" y="760" width="20" height="10" as="geometry" />
        </mxCell>
        <mxCell id="IB7GVzu5P3_bkm7AfhHR-271" value="" style="rounded=0;whiteSpace=wrap;html=1;fillColor=#e5dc7b;direction=south;" vertex="1" parent="1">
          <mxGeometry x="960" y="770" width="20" height="10" as="geometry" />
        </mxCell>
        <mxCell id="IB7GVzu5P3_bkm7AfhHR-272" value="" style="rounded=0;whiteSpace=wrap;html=1;fillColor=#e5dc7b;direction=south;" vertex="1" parent="1">
          <mxGeometry x="960" y="780" width="20" height="10" as="geometry" />
        </mxCell>
        <mxCell id="IB7GVzu5P3_bkm7AfhHR-273" value="" style="rounded=0;whiteSpace=wrap;html=1;fillColor=#e5dc7b;direction=south;" vertex="1" parent="1">
          <mxGeometry x="960" y="790" width="20" height="10" as="geometry" />
        </mxCell>
        <mxCell id="IB7GVzu5P3_bkm7AfhHR-274" value="" style="rounded=0;whiteSpace=wrap;html=1;fillColor=#e5dc7b;direction=south;" vertex="1" parent="1">
          <mxGeometry x="960" y="800" width="20" height="10" as="geometry" />
        </mxCell>
        <mxCell id="IB7GVzu5P3_bkm7AfhHR-275" value="" style="rounded=0;whiteSpace=wrap;html=1;fillColor=#e5dc7b;direction=south;" vertex="1" parent="1">
          <mxGeometry x="960" y="810" width="20" height="10" as="geometry" />
        </mxCell>
        <mxCell id="IB7GVzu5P3_bkm7AfhHR-276" value="" style="rounded=0;whiteSpace=wrap;html=1;fillColor=#e5dc7b;direction=south;" vertex="1" parent="1">
          <mxGeometry x="960" y="820" width="20" height="10" as="geometry" />
        </mxCell>
        <mxCell id="IB7GVzu5P3_bkm7AfhHR-277" value="" style="rounded=0;whiteSpace=wrap;html=1;fillColor=#e5dc7b;direction=south;" vertex="1" parent="1">
          <mxGeometry x="960" y="830" width="20" height="10" as="geometry" />
        </mxCell>
        <mxCell id="IB7GVzu5P3_bkm7AfhHR-278" value="" style="rounded=0;whiteSpace=wrap;html=1;fillColor=#e5dc7b;direction=south;" vertex="1" parent="1">
          <mxGeometry x="960" y="840" width="20" height="10" as="geometry" />
        </mxCell>
        <mxCell id="IB7GVzu5P3_bkm7AfhHR-279" value="" style="rounded=0;whiteSpace=wrap;html=1;fillColor=#e5dc7b;direction=south;" vertex="1" parent="1">
          <mxGeometry x="960" y="850" width="20" height="10" as="geometry" />
        </mxCell>
        <mxCell id="IB7GVzu5P3_bkm7AfhHR-280" value="" style="rounded=0;whiteSpace=wrap;html=1;fillColor=#e5dc7b;direction=south;" vertex="1" parent="1">
          <mxGeometry x="960" y="860" width="20" height="10" as="geometry" />
        </mxCell>
        <mxCell id="IB7GVzu5P3_bkm7AfhHR-281" value="" style="rounded=0;whiteSpace=wrap;html=1;fillColor=#e5dc7b;direction=south;" vertex="1" parent="1">
          <mxGeometry x="960" y="870" width="20" height="10" as="geometry" />
        </mxCell>
        <mxCell id="IB7GVzu5P3_bkm7AfhHR-282" value="" style="rounded=0;whiteSpace=wrap;html=1;fillColor=#e5dc7b;direction=south;" vertex="1" parent="1">
          <mxGeometry x="960" y="880" width="20" height="10" as="geometry" />
        </mxCell>
        <mxCell id="IB7GVzu5P3_bkm7AfhHR-283" value="" style="rounded=0;whiteSpace=wrap;html=1;fillColor=#e5dc7b;direction=south;" vertex="1" parent="1">
          <mxGeometry x="960" y="890" width="20" height="10" as="geometry" />
        </mxCell>
        <mxCell id="IB7GVzu5P3_bkm7AfhHR-284" value="" style="rounded=0;whiteSpace=wrap;html=1;fillColor=#e5dc7b;direction=south;" vertex="1" parent="1">
          <mxGeometry x="960" y="900" width="20" height="10" as="geometry" />
        </mxCell>
        <mxCell id="IB7GVzu5P3_bkm7AfhHR-285" value="" style="rounded=0;whiteSpace=wrap;html=1;fillColor=#e5dc7b;direction=south;" vertex="1" parent="1">
          <mxGeometry x="960" y="910" width="20" height="10" as="geometry" />
        </mxCell>
        <mxCell id="IB7GVzu5P3_bkm7AfhHR-286" value="" style="rounded=0;whiteSpace=wrap;html=1;fillColor=#e5dc7b;direction=south;" vertex="1" parent="1">
          <mxGeometry x="960" y="920" width="20" height="10" as="geometry" />
        </mxCell>
        <mxCell id="IB7GVzu5P3_bkm7AfhHR-287" value="" style="rounded=0;whiteSpace=wrap;html=1;fillColor=#e5dc7b;direction=south;" vertex="1" parent="1">
          <mxGeometry x="960" y="930" width="20" height="10" as="geometry" />
        </mxCell>
        <mxCell id="IB7GVzu5P3_bkm7AfhHR-288" value="" style="rounded=0;whiteSpace=wrap;html=1;fillColor=#e5dc7b;direction=south;" vertex="1" parent="1">
          <mxGeometry x="960" y="940" width="20" height="10" as="geometry" />
        </mxCell>
        <mxCell id="IB7GVzu5P3_bkm7AfhHR-289" value="" style="rounded=0;whiteSpace=wrap;html=1;fillColor=#e5dc7b;direction=south;" vertex="1" parent="1">
          <mxGeometry x="960" y="950" width="20" height="10" as="geometry" />
        </mxCell>
        <mxCell id="IB7GVzu5P3_bkm7AfhHR-290" value="" style="rounded=0;whiteSpace=wrap;html=1;fillColor=#e5dc7b;direction=south;" vertex="1" parent="1">
          <mxGeometry x="960" y="960" width="20" height="10" as="geometry" />
        </mxCell>
        <mxCell id="IB7GVzu5P3_bkm7AfhHR-291" value="" style="rounded=0;whiteSpace=wrap;html=1;fillColor=#e5dc7b;direction=south;" vertex="1" parent="1">
          <mxGeometry x="960" y="970" width="20" height="10" as="geometry" />
        </mxCell>
        <mxCell id="IB7GVzu5P3_bkm7AfhHR-292" value="" style="rounded=0;whiteSpace=wrap;html=1;fillColor=#e5dc7b;direction=south;" vertex="1" parent="1">
          <mxGeometry x="960" y="980" width="20" height="10" as="geometry" />
        </mxCell>
        <mxCell id="IB7GVzu5P3_bkm7AfhHR-293" value="" style="rounded=0;whiteSpace=wrap;html=1;fillColor=#e5dc7b;direction=south;" vertex="1" parent="1">
          <mxGeometry x="960" y="990" width="20" height="10" as="geometry" />
        </mxCell>
        <mxCell id="IB7GVzu5P3_bkm7AfhHR-294" value="" style="rounded=0;whiteSpace=wrap;html=1;fillColor=#e5dc7b;direction=south;" vertex="1" parent="1">
          <mxGeometry x="960" y="1000" width="20" height="10" as="geometry" />
        </mxCell>
        <mxCell id="IB7GVzu5P3_bkm7AfhHR-295" value="" style="rounded=0;whiteSpace=wrap;html=1;fillColor=#e5dc7b;direction=south;" vertex="1" parent="1">
          <mxGeometry x="960" y="1010" width="20" height="10" as="geometry" />
        </mxCell>
        <mxCell id="IB7GVzu5P3_bkm7AfhHR-296" value="" style="rounded=0;whiteSpace=wrap;html=1;fillColor=#e5dc7b;direction=south;" vertex="1" parent="1">
          <mxGeometry x="960" y="1020" width="20" height="10" as="geometry" />
        </mxCell>
        <mxCell id="IB7GVzu5P3_bkm7AfhHR-297" value="" style="rounded=0;whiteSpace=wrap;html=1;fillColor=#e5dc7b;direction=south;" vertex="1" parent="1">
          <mxGeometry x="960" y="1030" width="20" height="10" as="geometry" />
        </mxCell>
        <mxCell id="IB7GVzu5P3_bkm7AfhHR-298" value="" style="rounded=0;whiteSpace=wrap;html=1;fillColor=#e5dc7b;direction=south;" vertex="1" parent="1">
          <mxGeometry x="960" y="1040" width="20" height="10" as="geometry" />
        </mxCell>
        <mxCell id="IB7GVzu5P3_bkm7AfhHR-299" value="" style="rounded=0;whiteSpace=wrap;html=1;fillColor=#e5dc7b;direction=south;" vertex="1" parent="1">
          <mxGeometry x="960" y="1050" width="20" height="10" as="geometry" />
        </mxCell>
        <mxCell id="IB7GVzu5P3_bkm7AfhHR-300" value="" style="rounded=0;whiteSpace=wrap;html=1;fillColor=#e5dc7b;direction=south;" vertex="1" parent="1">
          <mxGeometry x="960" y="1060" width="20" height="10" as="geometry" />
        </mxCell>
        <mxCell id="IB7GVzu5P3_bkm7AfhHR-301" value="" style="rounded=0;whiteSpace=wrap;html=1;fillColor=#e5dc7b;direction=south;" vertex="1" parent="1">
          <mxGeometry x="960" y="1070" width="20" height="10" as="geometry" />
        </mxCell>
        <mxCell id="IB7GVzu5P3_bkm7AfhHR-302" value="" style="rounded=0;whiteSpace=wrap;html=1;fillColor=#e5dc7b;direction=south;" vertex="1" parent="1">
          <mxGeometry x="960" y="1080" width="20" height="10" as="geometry" />
        </mxCell>
        <mxCell id="IB7GVzu5P3_bkm7AfhHR-308" value="" style="rounded=0;whiteSpace=wrap;html=1;fillColor=#2e7956;direction=south;" vertex="1" parent="1">
          <mxGeometry x="960" y="1160" width="160" height="820" as="geometry" />
        </mxCell>
        <mxCell id="IB7GVzu5P3_bkm7AfhHR-309" value="&lt;span style=&quot;color: rgb(163, 159, 159); font-size: 22px;&quot;&gt;x8&lt;/span&gt;" style="rounded=0;whiteSpace=wrap;html=1;strokeColor=#454744;fillColor=#464646;direction=south;" vertex="1" parent="1">
          <mxGeometry x="1020" y="1372" width="80" height="60" as="geometry" />
        </mxCell>
        <mxCell id="IB7GVzu5P3_bkm7AfhHR-310" value="&lt;span style=&quot;color: rgb(163, 159, 159); font-size: 22px;&quot;&gt;x8&lt;/span&gt;" style="rounded=0;whiteSpace=wrap;html=1;strokeColor=#454744;fillColor=#464646;direction=south;" vertex="1" parent="1">
          <mxGeometry x="1020" y="1227" width="80" height="60" as="geometry" />
        </mxCell>
        <mxCell id="IB7GVzu5P3_bkm7AfhHR-311" value="" style="rounded=0;whiteSpace=wrap;html=1;fillColor=#e5dc7b;direction=south;" vertex="1" parent="1">
          <mxGeometry x="960" y="1170" width="20" height="10" as="geometry" />
        </mxCell>
        <mxCell id="IB7GVzu5P3_bkm7AfhHR-312" value="" style="shape=or;whiteSpace=wrap;html=1;direction=east;" vertex="1" parent="1">
          <mxGeometry x="960" y="1565" width="30" height="15" as="geometry" />
        </mxCell>
        <mxCell id="IB7GVzu5P3_bkm7AfhHR-314" value="&lt;span style=&quot;color: rgb(163, 159, 159); font-size: 22px;&quot;&gt;x8&lt;/span&gt;" style="rounded=0;whiteSpace=wrap;html=1;strokeColor=#454744;fillColor=#464646;direction=south;" vertex="1" parent="1">
          <mxGeometry x="1020" y="1532" width="80" height="60" as="geometry" />
        </mxCell>
        <mxCell id="IB7GVzu5P3_bkm7AfhHR-315" value="&lt;span style=&quot;color: rgb(163, 159, 159); font-size: 22px;&quot;&gt;x8&lt;/span&gt;" style="rounded=0;whiteSpace=wrap;html=1;strokeColor=#454744;fillColor=#464646;direction=south;" vertex="1" parent="1">
          <mxGeometry x="1020" y="1852" width="80" height="60" as="geometry" />
        </mxCell>
        <mxCell id="IB7GVzu5P3_bkm7AfhHR-316" value="&lt;span style=&quot;color: rgb(163, 159, 159); font-size: 22px;&quot;&gt;x8&lt;/span&gt;" style="rounded=0;whiteSpace=wrap;html=1;strokeColor=#454744;fillColor=#464646;direction=south;" vertex="1" parent="1">
          <mxGeometry x="1020" y="1692" width="80" height="60" as="geometry" />
        </mxCell>
        <mxCell id="IB7GVzu5P3_bkm7AfhHR-321" value="" style="rounded=0;whiteSpace=wrap;html=1;fillColor=#e5dc7b;direction=south;" vertex="1" parent="1">
          <mxGeometry x="960" y="1180" width="20" height="10" as="geometry" />
        </mxCell>
        <mxCell id="IB7GVzu5P3_bkm7AfhHR-322" value="" style="rounded=0;whiteSpace=wrap;html=1;fillColor=#e5dc7b;direction=south;" vertex="1" parent="1">
          <mxGeometry x="960" y="1190" width="20" height="10" as="geometry" />
        </mxCell>
        <mxCell id="IB7GVzu5P3_bkm7AfhHR-323" value="" style="rounded=0;whiteSpace=wrap;html=1;fillColor=#e5dc7b;direction=south;" vertex="1" parent="1">
          <mxGeometry x="960" y="1200" width="20" height="10" as="geometry" />
        </mxCell>
        <mxCell id="IB7GVzu5P3_bkm7AfhHR-324" value="" style="rounded=0;whiteSpace=wrap;html=1;fillColor=#e5dc7b;direction=south;" vertex="1" parent="1">
          <mxGeometry x="960" y="1210" width="20" height="10" as="geometry" />
        </mxCell>
        <mxCell id="IB7GVzu5P3_bkm7AfhHR-325" value="" style="rounded=0;whiteSpace=wrap;html=1;fillColor=#e5dc7b;direction=south;" vertex="1" parent="1">
          <mxGeometry x="960" y="1220" width="20" height="10" as="geometry" />
        </mxCell>
        <mxCell id="IB7GVzu5P3_bkm7AfhHR-326" value="" style="rounded=0;whiteSpace=wrap;html=1;fillColor=#e5dc7b;direction=south;" vertex="1" parent="1">
          <mxGeometry x="960" y="1230" width="20" height="10" as="geometry" />
        </mxCell>
        <mxCell id="IB7GVzu5P3_bkm7AfhHR-327" value="" style="rounded=0;whiteSpace=wrap;html=1;fillColor=#e5dc7b;direction=south;" vertex="1" parent="1">
          <mxGeometry x="960" y="1240" width="20" height="10" as="geometry" />
        </mxCell>
        <mxCell id="IB7GVzu5P3_bkm7AfhHR-328" value="" style="rounded=0;whiteSpace=wrap;html=1;fillColor=#e5dc7b;direction=south;" vertex="1" parent="1">
          <mxGeometry x="960" y="1250" width="20" height="10" as="geometry" />
        </mxCell>
        <mxCell id="IB7GVzu5P3_bkm7AfhHR-329" value="" style="rounded=0;whiteSpace=wrap;html=1;fillColor=#e5dc7b;direction=south;" vertex="1" parent="1">
          <mxGeometry x="960" y="1260" width="20" height="10" as="geometry" />
        </mxCell>
        <mxCell id="IB7GVzu5P3_bkm7AfhHR-330" value="" style="rounded=0;whiteSpace=wrap;html=1;fillColor=#e5dc7b;direction=south;" vertex="1" parent="1">
          <mxGeometry x="960" y="1270" width="20" height="10" as="geometry" />
        </mxCell>
        <mxCell id="IB7GVzu5P3_bkm7AfhHR-331" value="" style="rounded=0;whiteSpace=wrap;html=1;fillColor=#e5dc7b;direction=south;" vertex="1" parent="1">
          <mxGeometry x="960" y="1280" width="20" height="10" as="geometry" />
        </mxCell>
        <mxCell id="IB7GVzu5P3_bkm7AfhHR-332" value="" style="rounded=0;whiteSpace=wrap;html=1;fillColor=#e5dc7b;direction=south;" vertex="1" parent="1">
          <mxGeometry x="960" y="1290" width="20" height="10" as="geometry" />
        </mxCell>
        <mxCell id="IB7GVzu5P3_bkm7AfhHR-333" value="" style="rounded=0;whiteSpace=wrap;html=1;fillColor=#e5dc7b;direction=south;" vertex="1" parent="1">
          <mxGeometry x="960" y="1300" width="20" height="10" as="geometry" />
        </mxCell>
        <mxCell id="IB7GVzu5P3_bkm7AfhHR-334" value="" style="rounded=0;whiteSpace=wrap;html=1;fillColor=#e5dc7b;direction=south;" vertex="1" parent="1">
          <mxGeometry x="960" y="1310" width="20" height="10" as="geometry" />
        </mxCell>
        <mxCell id="IB7GVzu5P3_bkm7AfhHR-335" value="" style="rounded=0;whiteSpace=wrap;html=1;fillColor=#e5dc7b;direction=south;" vertex="1" parent="1">
          <mxGeometry x="960" y="1320" width="20" height="10" as="geometry" />
        </mxCell>
        <mxCell id="IB7GVzu5P3_bkm7AfhHR-336" value="" style="rounded=0;whiteSpace=wrap;html=1;fillColor=#e5dc7b;direction=south;" vertex="1" parent="1">
          <mxGeometry x="960" y="1330" width="20" height="10" as="geometry" />
        </mxCell>
        <mxCell id="IB7GVzu5P3_bkm7AfhHR-337" value="" style="rounded=0;whiteSpace=wrap;html=1;fillColor=#e5dc7b;direction=south;" vertex="1" parent="1">
          <mxGeometry x="960" y="1340" width="20" height="10" as="geometry" />
        </mxCell>
        <mxCell id="IB7GVzu5P3_bkm7AfhHR-338" value="" style="rounded=0;whiteSpace=wrap;html=1;fillColor=#e5dc7b;direction=south;" vertex="1" parent="1">
          <mxGeometry x="960" y="1350" width="20" height="10" as="geometry" />
        </mxCell>
        <mxCell id="IB7GVzu5P3_bkm7AfhHR-339" value="" style="rounded=0;whiteSpace=wrap;html=1;fillColor=#e5dc7b;direction=south;" vertex="1" parent="1">
          <mxGeometry x="960" y="1360" width="20" height="10" as="geometry" />
        </mxCell>
        <mxCell id="IB7GVzu5P3_bkm7AfhHR-340" value="" style="rounded=0;whiteSpace=wrap;html=1;fillColor=#e5dc7b;direction=south;" vertex="1" parent="1">
          <mxGeometry x="960" y="1370" width="20" height="10" as="geometry" />
        </mxCell>
        <mxCell id="IB7GVzu5P3_bkm7AfhHR-341" value="" style="rounded=0;whiteSpace=wrap;html=1;fillColor=#e5dc7b;direction=south;" vertex="1" parent="1">
          <mxGeometry x="960" y="1380" width="20" height="10" as="geometry" />
        </mxCell>
        <mxCell id="IB7GVzu5P3_bkm7AfhHR-342" value="" style="rounded=0;whiteSpace=wrap;html=1;fillColor=#e5dc7b;direction=south;" vertex="1" parent="1">
          <mxGeometry x="960" y="1390" width="20" height="10" as="geometry" />
        </mxCell>
        <mxCell id="IB7GVzu5P3_bkm7AfhHR-343" value="" style="rounded=0;whiteSpace=wrap;html=1;fillColor=#e5dc7b;direction=south;" vertex="1" parent="1">
          <mxGeometry x="960" y="1400" width="20" height="10" as="geometry" />
        </mxCell>
        <mxCell id="IB7GVzu5P3_bkm7AfhHR-344" value="" style="rounded=0;whiteSpace=wrap;html=1;fillColor=#e5dc7b;direction=south;" vertex="1" parent="1">
          <mxGeometry x="960" y="1410" width="20" height="10" as="geometry" />
        </mxCell>
        <mxCell id="IB7GVzu5P3_bkm7AfhHR-345" value="" style="rounded=0;whiteSpace=wrap;html=1;fillColor=#e5dc7b;direction=south;" vertex="1" parent="1">
          <mxGeometry x="960" y="1420" width="20" height="10" as="geometry" />
        </mxCell>
        <mxCell id="IB7GVzu5P3_bkm7AfhHR-346" value="" style="rounded=0;whiteSpace=wrap;html=1;fillColor=#e5dc7b;direction=south;" vertex="1" parent="1">
          <mxGeometry x="960" y="1430" width="20" height="10" as="geometry" />
        </mxCell>
        <mxCell id="IB7GVzu5P3_bkm7AfhHR-347" value="" style="rounded=0;whiteSpace=wrap;html=1;fillColor=#e5dc7b;direction=south;" vertex="1" parent="1">
          <mxGeometry x="960" y="1440" width="20" height="10" as="geometry" />
        </mxCell>
        <mxCell id="IB7GVzu5P3_bkm7AfhHR-348" value="" style="rounded=0;whiteSpace=wrap;html=1;fillColor=#e5dc7b;direction=south;" vertex="1" parent="1">
          <mxGeometry x="960" y="1450" width="20" height="10" as="geometry" />
        </mxCell>
        <mxCell id="IB7GVzu5P3_bkm7AfhHR-349" value="" style="rounded=0;whiteSpace=wrap;html=1;fillColor=#e5dc7b;direction=south;" vertex="1" parent="1">
          <mxGeometry x="960" y="1460" width="20" height="10" as="geometry" />
        </mxCell>
        <mxCell id="IB7GVzu5P3_bkm7AfhHR-350" value="" style="rounded=0;whiteSpace=wrap;html=1;fillColor=#e5dc7b;direction=south;" vertex="1" parent="1">
          <mxGeometry x="960" y="1470" width="20" height="10" as="geometry" />
        </mxCell>
        <mxCell id="IB7GVzu5P3_bkm7AfhHR-351" value="" style="rounded=0;whiteSpace=wrap;html=1;fillColor=#e5dc7b;direction=south;" vertex="1" parent="1">
          <mxGeometry x="960" y="1480" width="20" height="10" as="geometry" />
        </mxCell>
        <mxCell id="IB7GVzu5P3_bkm7AfhHR-352" value="" style="rounded=0;whiteSpace=wrap;html=1;fillColor=#e5dc7b;direction=south;" vertex="1" parent="1">
          <mxGeometry x="960" y="1490" width="20" height="10" as="geometry" />
        </mxCell>
        <mxCell id="IB7GVzu5P3_bkm7AfhHR-353" value="" style="rounded=0;whiteSpace=wrap;html=1;fillColor=#e5dc7b;direction=south;" vertex="1" parent="1">
          <mxGeometry x="960" y="1500" width="20" height="10" as="geometry" />
        </mxCell>
        <mxCell id="IB7GVzu5P3_bkm7AfhHR-354" value="" style="rounded=0;whiteSpace=wrap;html=1;fillColor=#e5dc7b;direction=south;" vertex="1" parent="1">
          <mxGeometry x="960" y="1510" width="20" height="10" as="geometry" />
        </mxCell>
        <mxCell id="IB7GVzu5P3_bkm7AfhHR-355" value="" style="rounded=0;whiteSpace=wrap;html=1;fillColor=#e5dc7b;direction=south;" vertex="1" parent="1">
          <mxGeometry x="960" y="1520" width="20" height="10" as="geometry" />
        </mxCell>
        <mxCell id="IB7GVzu5P3_bkm7AfhHR-356" value="" style="rounded=0;whiteSpace=wrap;html=1;fillColor=#e5dc7b;direction=south;" vertex="1" parent="1">
          <mxGeometry x="960" y="1530" width="20" height="10" as="geometry" />
        </mxCell>
        <mxCell id="IB7GVzu5P3_bkm7AfhHR-357" value="" style="rounded=0;whiteSpace=wrap;html=1;fillColor=#e5dc7b;direction=south;" vertex="1" parent="1">
          <mxGeometry x="960" y="1540" width="20" height="10" as="geometry" />
        </mxCell>
        <mxCell id="IB7GVzu5P3_bkm7AfhHR-358" value="" style="rounded=0;whiteSpace=wrap;html=1;fillColor=#e5dc7b;direction=south;" vertex="1" parent="1">
          <mxGeometry x="960" y="1550" width="20" height="10" as="geometry" />
        </mxCell>
        <mxCell id="IB7GVzu5P3_bkm7AfhHR-359" value="" style="rounded=0;whiteSpace=wrap;html=1;fillColor=#e5dc7b;direction=south;" vertex="1" parent="1">
          <mxGeometry x="960" y="1590" width="20" height="10" as="geometry" />
        </mxCell>
        <mxCell id="IB7GVzu5P3_bkm7AfhHR-360" value="" style="rounded=0;whiteSpace=wrap;html=1;fillColor=#e5dc7b;direction=south;" vertex="1" parent="1">
          <mxGeometry x="960" y="1600" width="20" height="10" as="geometry" />
        </mxCell>
        <mxCell id="IB7GVzu5P3_bkm7AfhHR-361" value="" style="rounded=0;whiteSpace=wrap;html=1;fillColor=#e5dc7b;direction=south;" vertex="1" parent="1">
          <mxGeometry x="960" y="1610" width="20" height="10" as="geometry" />
        </mxCell>
        <mxCell id="IB7GVzu5P3_bkm7AfhHR-362" value="" style="rounded=0;whiteSpace=wrap;html=1;fillColor=#e5dc7b;direction=south;" vertex="1" parent="1">
          <mxGeometry x="960" y="1620" width="20" height="10" as="geometry" />
        </mxCell>
        <mxCell id="IB7GVzu5P3_bkm7AfhHR-363" value="" style="rounded=0;whiteSpace=wrap;html=1;fillColor=#e5dc7b;direction=south;" vertex="1" parent="1">
          <mxGeometry x="960" y="1630" width="20" height="10" as="geometry" />
        </mxCell>
        <mxCell id="IB7GVzu5P3_bkm7AfhHR-364" value="" style="rounded=0;whiteSpace=wrap;html=1;fillColor=#e5dc7b;direction=south;" vertex="1" parent="1">
          <mxGeometry x="960" y="1640" width="20" height="10" as="geometry" />
        </mxCell>
        <mxCell id="IB7GVzu5P3_bkm7AfhHR-365" value="" style="rounded=0;whiteSpace=wrap;html=1;fillColor=#e5dc7b;direction=south;" vertex="1" parent="1">
          <mxGeometry x="960" y="1650" width="20" height="10" as="geometry" />
        </mxCell>
        <mxCell id="IB7GVzu5P3_bkm7AfhHR-366" value="" style="rounded=0;whiteSpace=wrap;html=1;fillColor=#e5dc7b;direction=south;" vertex="1" parent="1">
          <mxGeometry x="960" y="1660" width="20" height="10" as="geometry" />
        </mxCell>
        <mxCell id="IB7GVzu5P3_bkm7AfhHR-367" value="" style="rounded=0;whiteSpace=wrap;html=1;fillColor=#e5dc7b;direction=south;" vertex="1" parent="1">
          <mxGeometry x="960" y="1670" width="20" height="10" as="geometry" />
        </mxCell>
        <mxCell id="IB7GVzu5P3_bkm7AfhHR-368" value="" style="rounded=0;whiteSpace=wrap;html=1;fillColor=#e5dc7b;direction=south;" vertex="1" parent="1">
          <mxGeometry x="960" y="1680" width="20" height="10" as="geometry" />
        </mxCell>
        <mxCell id="IB7GVzu5P3_bkm7AfhHR-369" value="" style="rounded=0;whiteSpace=wrap;html=1;fillColor=#e5dc7b;direction=south;" vertex="1" parent="1">
          <mxGeometry x="960" y="1690" width="20" height="10" as="geometry" />
        </mxCell>
        <mxCell id="IB7GVzu5P3_bkm7AfhHR-370" value="" style="rounded=0;whiteSpace=wrap;html=1;fillColor=#e5dc7b;direction=south;" vertex="1" parent="1">
          <mxGeometry x="960" y="1700" width="20" height="10" as="geometry" />
        </mxCell>
        <mxCell id="IB7GVzu5P3_bkm7AfhHR-371" value="" style="rounded=0;whiteSpace=wrap;html=1;fillColor=#e5dc7b;direction=south;" vertex="1" parent="1">
          <mxGeometry x="960" y="1710" width="20" height="10" as="geometry" />
        </mxCell>
        <mxCell id="IB7GVzu5P3_bkm7AfhHR-372" value="" style="rounded=0;whiteSpace=wrap;html=1;fillColor=#e5dc7b;direction=south;" vertex="1" parent="1">
          <mxGeometry x="960" y="1720" width="20" height="10" as="geometry" />
        </mxCell>
        <mxCell id="IB7GVzu5P3_bkm7AfhHR-373" value="" style="rounded=0;whiteSpace=wrap;html=1;fillColor=#e5dc7b;direction=south;" vertex="1" parent="1">
          <mxGeometry x="960" y="1730" width="20" height="10" as="geometry" />
        </mxCell>
        <mxCell id="IB7GVzu5P3_bkm7AfhHR-374" value="" style="rounded=0;whiteSpace=wrap;html=1;fillColor=#e5dc7b;direction=south;" vertex="1" parent="1">
          <mxGeometry x="960" y="1740" width="20" height="10" as="geometry" />
        </mxCell>
        <mxCell id="IB7GVzu5P3_bkm7AfhHR-375" value="" style="rounded=0;whiteSpace=wrap;html=1;fillColor=#e5dc7b;direction=south;" vertex="1" parent="1">
          <mxGeometry x="960" y="1750" width="20" height="10" as="geometry" />
        </mxCell>
        <mxCell id="IB7GVzu5P3_bkm7AfhHR-376" value="" style="rounded=0;whiteSpace=wrap;html=1;fillColor=#e5dc7b;direction=south;" vertex="1" parent="1">
          <mxGeometry x="960" y="1760" width="20" height="10" as="geometry" />
        </mxCell>
        <mxCell id="IB7GVzu5P3_bkm7AfhHR-377" value="" style="rounded=0;whiteSpace=wrap;html=1;fillColor=#e5dc7b;direction=south;" vertex="1" parent="1">
          <mxGeometry x="960" y="1770" width="20" height="10" as="geometry" />
        </mxCell>
        <mxCell id="IB7GVzu5P3_bkm7AfhHR-378" value="" style="rounded=0;whiteSpace=wrap;html=1;fillColor=#e5dc7b;direction=south;" vertex="1" parent="1">
          <mxGeometry x="960" y="1780" width="20" height="10" as="geometry" />
        </mxCell>
        <mxCell id="IB7GVzu5P3_bkm7AfhHR-379" value="" style="rounded=0;whiteSpace=wrap;html=1;fillColor=#e5dc7b;direction=south;" vertex="1" parent="1">
          <mxGeometry x="960" y="1790" width="20" height="10" as="geometry" />
        </mxCell>
        <mxCell id="IB7GVzu5P3_bkm7AfhHR-380" value="" style="rounded=0;whiteSpace=wrap;html=1;fillColor=#e5dc7b;direction=south;" vertex="1" parent="1">
          <mxGeometry x="960" y="1800" width="20" height="10" as="geometry" />
        </mxCell>
        <mxCell id="IB7GVzu5P3_bkm7AfhHR-381" value="" style="rounded=0;whiteSpace=wrap;html=1;fillColor=#e5dc7b;direction=south;" vertex="1" parent="1">
          <mxGeometry x="960" y="1810" width="20" height="10" as="geometry" />
        </mxCell>
        <mxCell id="IB7GVzu5P3_bkm7AfhHR-382" value="" style="rounded=0;whiteSpace=wrap;html=1;fillColor=#e5dc7b;direction=south;" vertex="1" parent="1">
          <mxGeometry x="960" y="1820" width="20" height="10" as="geometry" />
        </mxCell>
        <mxCell id="IB7GVzu5P3_bkm7AfhHR-383" value="" style="rounded=0;whiteSpace=wrap;html=1;fillColor=#e5dc7b;direction=south;" vertex="1" parent="1">
          <mxGeometry x="960" y="1830" width="20" height="10" as="geometry" />
        </mxCell>
        <mxCell id="IB7GVzu5P3_bkm7AfhHR-384" value="" style="rounded=0;whiteSpace=wrap;html=1;fillColor=#e5dc7b;direction=south;" vertex="1" parent="1">
          <mxGeometry x="960" y="1840" width="20" height="10" as="geometry" />
        </mxCell>
        <mxCell id="IB7GVzu5P3_bkm7AfhHR-385" value="" style="rounded=0;whiteSpace=wrap;html=1;fillColor=#e5dc7b;direction=south;" vertex="1" parent="1">
          <mxGeometry x="960" y="1850" width="20" height="10" as="geometry" />
        </mxCell>
        <mxCell id="IB7GVzu5P3_bkm7AfhHR-386" value="" style="rounded=0;whiteSpace=wrap;html=1;fillColor=#e5dc7b;direction=south;" vertex="1" parent="1">
          <mxGeometry x="960" y="1860" width="20" height="10" as="geometry" />
        </mxCell>
        <mxCell id="IB7GVzu5P3_bkm7AfhHR-387" value="" style="rounded=0;whiteSpace=wrap;html=1;fillColor=#e5dc7b;direction=south;" vertex="1" parent="1">
          <mxGeometry x="960" y="1870" width="20" height="10" as="geometry" />
        </mxCell>
        <mxCell id="IB7GVzu5P3_bkm7AfhHR-388" value="" style="rounded=0;whiteSpace=wrap;html=1;fillColor=#e5dc7b;direction=south;" vertex="1" parent="1">
          <mxGeometry x="960" y="1880" width="20" height="10" as="geometry" />
        </mxCell>
        <mxCell id="IB7GVzu5P3_bkm7AfhHR-389" value="" style="rounded=0;whiteSpace=wrap;html=1;fillColor=#e5dc7b;direction=south;" vertex="1" parent="1">
          <mxGeometry x="960" y="1890" width="20" height="10" as="geometry" />
        </mxCell>
        <mxCell id="IB7GVzu5P3_bkm7AfhHR-390" value="" style="rounded=0;whiteSpace=wrap;html=1;fillColor=#e5dc7b;direction=south;" vertex="1" parent="1">
          <mxGeometry x="960" y="1900" width="20" height="10" as="geometry" />
        </mxCell>
        <mxCell id="IB7GVzu5P3_bkm7AfhHR-391" value="" style="rounded=0;whiteSpace=wrap;html=1;fillColor=#e5dc7b;direction=south;" vertex="1" parent="1">
          <mxGeometry x="960" y="1910" width="20" height="10" as="geometry" />
        </mxCell>
        <mxCell id="IB7GVzu5P3_bkm7AfhHR-392" value="" style="rounded=0;whiteSpace=wrap;html=1;fillColor=#e5dc7b;direction=south;" vertex="1" parent="1">
          <mxGeometry x="960" y="1920" width="20" height="10" as="geometry" />
        </mxCell>
        <mxCell id="IB7GVzu5P3_bkm7AfhHR-393" value="" style="rounded=0;whiteSpace=wrap;html=1;fillColor=#e5dc7b;direction=south;" vertex="1" parent="1">
          <mxGeometry x="960" y="1930" width="20" height="10" as="geometry" />
        </mxCell>
        <mxCell id="IB7GVzu5P3_bkm7AfhHR-394" value="" style="rounded=0;whiteSpace=wrap;html=1;fillColor=#e5dc7b;direction=south;" vertex="1" parent="1">
          <mxGeometry x="960" y="1940" width="20" height="10" as="geometry" />
        </mxCell>
        <mxCell id="IB7GVzu5P3_bkm7AfhHR-395" value="" style="rounded=0;whiteSpace=wrap;html=1;fillColor=#e5dc7b;direction=south;" vertex="1" parent="1">
          <mxGeometry x="960" y="1950" width="20" height="10" as="geometry" />
        </mxCell>
        <mxCell id="IB7GVzu5P3_bkm7AfhHR-396" value="" style="rounded=0;whiteSpace=wrap;html=1;fillColor=#e5dc7b;direction=south;" vertex="1" parent="1">
          <mxGeometry x="960" y="1960" width="20" height="10" as="geometry" />
        </mxCell>
      </root>
    </mxGraphModel>
  </diagram>
</mxfile>
